<svg width="1978" height="254" viewBox="0 0 1978 254" fill="none" xmlns="http://www.w3.org/2000/svg">
<path d="M1825.02 76.019H1850.36V101.358H1825.02V76.019ZM1850.36 101.358H1875.7V126.698H1850.36V101.358ZM1825.02 101.358H1850.36V126.698H1825.02V101.358ZM1825.02 126.698H1850.36V152.037H1825.02V126.698ZM1850.36 126.698H1875.7V152.037H1850.36V126.698ZM1850.36 152.037H1875.7V177.376H1850.36V152.037ZM1875.7 152.037H1901.04V177.376H1875.7V152.037ZM1901.04 152.037H1926.38V177.376H1901.04V152.037ZM1926.38 126.698H1951.72V152.037H1926.38V126.698ZM1901.04 126.698H1926.38V152.037H1901.04V126.698ZM1875.7 126.698H1901.04V152.037H1875.7V126.698ZM1926.38 152.037H1951.72V177.376H1926.38V152.037ZM1951.72 152.037H1977.06V177.376H1951.72V152.037ZM1951.72 177.376H1977.06V202.715H1951.72V177.376ZM1926.38 177.376H1951.72V202.715H1926.38V177.376ZM1926.38 202.715H1951.72V228.055H1926.38V202.715ZM1951.72 202.715H1977.06V228.055H1951.72V202.715ZM1926.38 228.055H1951.72V253.394H1926.38V228.055ZM1901.04 202.715H1926.38V228.055H1901.04V202.715ZM1875.7 202.715H1901.04V228.055H1875.7V202.715ZM1850.36 202.715H1875.7V228.055H1850.36V202.715ZM1825.02 202.715H1850.36V228.055H1825.02V202.715ZM1850.36 228.055H1875.7V253.394H1850.36V228.055ZM1875.7 228.055H1901.04V253.394H1875.7V228.055ZM1901.04 228.055H1926.38V253.394H1901.04V228.055ZM1951.72 76.019H1977.06V101.358H1951.72V76.019ZM1926.38 76.019H1951.72V101.358H1926.38V76.019ZM1926.38 50.6797H1951.72V76.019H1926.38V50.6797ZM1901.04 50.6797H1926.38V76.019H1901.04V50.6797ZM1875.7 50.6797H1901.04V76.019H1875.7V50.6797ZM1850.36 50.6797H1875.7V76.019H1850.36V50.6797ZM1850.36 76.019H1875.7V101.358H1850.36V76.019ZM1875.7 76.019H1901.04V101.358H1875.7V76.019ZM1901.04 76.019H1926.38V101.358H1901.04V76.019Z" fill="white"/>
<path d="M1622.24 76.019H1647.58V101.358H1622.24V76.019ZM1622.24 50.6797H1647.58V76.019H1622.24V50.6797ZM1647.58 50.6797H1672.92V76.019H1647.58V50.6797ZM1647.58 76.019H1672.92V101.358H1647.58V76.019ZM1647.58 101.358H1672.92V126.698H1647.58V101.358ZM1647.58 126.698H1672.92V152.037H1647.58V126.698ZM1647.58 152.037H1672.92V177.376H1647.58V152.037ZM1622.24 152.037H1647.58V177.376H1622.24V152.037ZM1622.24 126.698H1647.58V152.037H1622.24V126.698ZM1622.24 101.358H1647.58V126.698H1622.24V101.358ZM1622.24 177.376H1647.58V202.715H1622.24V177.376ZM1647.58 177.376H1672.92V202.715H1647.58V177.376ZM1647.58 202.715H1672.92V228.055H1647.58V202.715ZM1647.58 228.055H1672.92V253.394H1647.58V228.055ZM1622.24 228.055H1647.58V253.394H1622.24V228.055ZM1622.24 202.715H1647.58V228.055H1622.24V202.715ZM1748.94 228.055H1774.28V253.394H1748.94V228.055ZM1774.28 228.055H1799.62V253.394H1774.28V228.055ZM1774.28 202.715H1799.62V228.055H1774.28V202.715ZM1774.28 177.376H1799.62V202.715H1774.28V177.376ZM1774.28 152.037H1799.62V177.376H1774.28V152.037ZM1774.28 126.698H1799.62V152.037H1774.28V126.698ZM1774.28 101.358H1799.62V126.698H1774.28V101.358ZM1774.28 76.019H1799.62V101.358H1774.28V76.019ZM1748.94 126.698H1774.28V152.037H1748.94V126.698ZM1748.94 152.037H1774.28V177.376H1748.94V152.037ZM1748.94 177.376H1774.28V202.715H1748.94V177.376ZM1748.94 202.715H1774.28V228.055H1748.94V202.715ZM1748.94 101.358H1774.28V126.698H1748.94V101.358ZM1672.92 76.019H1698.26V101.358H1672.92V76.019ZM1698.26 76.019H1723.6V101.358H1698.26V76.019ZM1723.6 76.019H1748.94V101.358H1723.6V76.019ZM1723.6 50.6797H1748.94V76.019H1723.6V50.6797ZM1748.94 50.6797H1774.28V76.019H1748.94V50.6797ZM1748.94 76.019H1774.28V101.358H1748.94V76.019ZM1698.26 50.6797H1723.6V76.019H1698.26V50.6797Z" fill="white"/>
<path d="M1571.5 253.394H1546.16V228.055H1571.5V253.394ZM1571.5 228.055H1546.16V202.715H1571.5V228.055ZM1546.16 228.055H1520.82V202.715H1546.16V228.055ZM1520.82 253.394H1495.48V228.055H1520.82V253.394ZM1495.48 253.394H1470.14V228.055H1495.48V253.394ZM1470.14 253.394H1444.8V228.055H1470.14V253.394ZM1470.14 228.055H1444.8V202.715H1470.14V228.055ZM1495.48 228.055H1470.14V202.715H1495.48V228.055ZM1444.8 228.055H1419.46V202.715H1444.8V228.055ZM1444.8 202.715H1419.46V177.376H1444.8V202.715ZM1444.8 101.358H1419.46V76.019H1444.8V101.358ZM1470.14 101.358H1444.8V76.019H1470.14V101.358ZM1470.14 202.715H1444.8V177.376H1470.14V202.715ZM1495.48 101.358H1470.14V76.019H1495.48V101.358ZM1470.14 76.019H1444.8V50.6797H1470.14V76.019ZM1495.48 76.019H1470.14V50.6797H1495.48V76.019ZM1520.82 76.019H1495.48V50.6797H1520.82V76.019ZM1546.16 76.019H1520.82V50.6797H1546.16V76.019ZM1571.5 76.019H1546.16V50.6797H1571.5V76.019ZM1571.5 101.358H1546.16V76.019H1571.5V101.358ZM1546.16 101.358H1520.82V76.019H1546.16V101.358ZM1571.5 126.698H1546.16V101.358H1571.5V126.698ZM1596.84 101.358H1571.5V76.019H1596.84V101.358ZM1596.84 126.698H1571.5V101.358H1596.84V126.698ZM1596.84 152.037H1571.5V126.698H1596.84V152.037ZM1596.84 177.376H1571.5V152.037H1596.84V177.376ZM1596.84 202.715H1571.5V177.376H1596.84V202.715ZM1596.84 228.055H1571.5V202.715H1596.84V228.055ZM1571.5 202.715H1546.16V177.376H1571.5V202.715ZM1571.5 177.376H1546.16V152.037H1571.5V177.376ZM1571.5 152.037H1546.16V126.698H1571.5V152.037ZM1520.82 101.358H1495.48V76.019H1520.82V101.358ZM1520.82 228.055H1495.48V202.715H1520.82V228.055ZM1571.5 228.055H1596.84V253.394H1571.5V228.055ZM1520.82 126.698H1546.16V152.037H1520.82V126.698ZM1495.48 126.698H1520.82V152.037H1495.48V126.698ZM1470.14 126.698H1495.48V152.037H1470.14V126.698ZM1444.8 126.698H1470.14V152.037H1444.8V126.698ZM1419.46 152.037H1444.8V177.376H1419.46V152.037ZM1444.8 152.037H1470.14V177.376H1444.8V152.037ZM1520.82 152.037H1546.16V177.376H1520.82V152.037ZM1495.48 152.037H1520.82V177.376H1495.48V152.037ZM1470.14 152.037H1495.48V177.376H1470.14V152.037Z" fill="white"/>
<path d="M1140.93 76.019H1166.27V101.358H1140.93V76.019ZM1140.93 50.6797H1166.27V76.019H1140.93V50.6797ZM1166.27 50.6797H1191.61V76.019H1166.27V50.6797ZM1166.27 76.019H1191.61V101.358H1166.27V76.019ZM1166.27 101.358H1191.61V126.698H1166.27V101.358ZM1166.27 126.698H1191.61V152.037H1166.27V126.698ZM1166.27 152.037H1191.61V177.376H1166.27V152.037ZM1140.93 152.037H1166.27V177.376H1140.93V152.037ZM1140.93 126.698H1166.27V152.037H1140.93V126.698ZM1140.93 101.358H1166.27V126.698H1140.93V101.358ZM1140.93 177.376H1166.27V202.715H1140.93V177.376ZM1166.27 177.376H1191.61V202.715H1166.27V177.376ZM1166.27 202.715H1191.61V228.055H1166.27V202.715ZM1166.27 228.055H1191.61V253.394H1166.27V228.055ZM1140.93 228.055H1166.27V253.394H1140.93V228.055ZM1140.93 202.715H1166.27V228.055H1140.93V202.715ZM1242.28 228.055H1267.62V253.394H1242.28V228.055ZM1267.62 228.055H1292.96V253.394H1267.62V228.055ZM1267.62 202.715H1292.96V228.055H1267.62V202.715ZM1267.62 177.376H1292.96V202.715H1267.62V177.376ZM1267.62 152.037H1292.96V177.376H1267.62V152.037ZM1267.62 126.698H1292.96V152.037H1267.62V126.698ZM1267.62 101.358H1292.96V126.698H1267.62V101.358ZM1267.62 76.019H1292.96V101.358H1267.62V76.019ZM1242.28 126.698H1267.62V152.037H1242.28V126.698ZM1242.28 152.037H1267.62V177.376H1242.28V152.037ZM1242.28 177.376H1267.62V202.715H1242.28V177.376ZM1242.28 202.715H1267.62V228.055H1242.28V202.715ZM1242.28 101.358H1267.62V126.698H1242.28V101.358ZM1191.61 76.019H1216.95V101.358H1191.61V76.019ZM1216.95 76.019H1242.28V101.358H1216.95V76.019ZM1242.28 50.6797H1267.62V76.019H1242.28V50.6797ZM1242.28 76.019H1267.62V101.358H1242.28V76.019ZM1216.95 50.6797H1242.28V76.019H1216.95V50.6797ZM1343.64 228.055H1368.98V253.394H1343.64V228.055ZM1368.98 228.055H1394.32V253.394H1368.98V228.055ZM1368.98 202.715H1394.32V228.055H1368.98V202.715ZM1368.98 177.376H1394.32V202.715H1368.98V177.376ZM1368.98 152.037H1394.32V177.376H1368.98V152.037ZM1368.98 126.698H1394.32V152.037H1368.98V126.698ZM1368.98 101.358H1394.32V126.698H1368.98V101.358ZM1368.98 76.019H1394.32V101.358H1368.98V76.019ZM1343.64 126.698H1368.98V152.037H1343.64V126.698ZM1343.64 152.037H1368.98V177.376H1343.64V152.037ZM1343.64 177.376H1368.98V202.715H1343.64V177.376ZM1343.64 202.715H1368.98V228.055H1343.64V202.715ZM1343.64 101.358H1368.98V126.698H1343.64V101.358ZM1292.96 76.019H1318.3V101.358H1292.96V76.019ZM1318.3 76.019H1343.64V101.358H1318.3V76.019ZM1343.64 50.6797H1368.98V76.019H1343.64V50.6797ZM1343.64 76.019H1368.98V101.358H1343.64V76.019ZM1318.3 50.6797H1343.64V76.019H1318.3V50.6797Z" fill="white"/>
<path d="M1115.52 228.055H1090.18V202.715H1115.52V228.055ZM1115.52 253.394H1090.18V228.055H1115.52V253.394ZM1090.18 253.394H1064.84V228.055H1090.18V253.394ZM1090.18 228.055H1064.84V202.715H1090.18V228.055ZM1090.18 202.715H1064.84V177.376H1090.18V202.715ZM1090.18 177.376H1064.84V152.037H1090.18V177.376ZM1090.18 152.037H1064.84V126.698H1090.18V152.037ZM1115.52 152.037H1090.18V126.698H1115.52V152.037ZM1115.52 177.376H1090.18V152.037H1115.52V177.376ZM1115.52 202.715H1090.18V177.376H1115.52V202.715ZM1115.52 126.698H1090.18V101.358H1115.52V126.698ZM1090.18 126.698H1064.84V101.358H1090.18V126.698ZM1090.18 101.358H1064.84V76.019H1090.18V101.358ZM1090.18 76.019H1064.84V50.6797H1090.18V76.019ZM1115.52 76.019H1090.18V50.6797H1115.52V76.019ZM1115.52 101.358H1090.18V76.019H1115.52V101.358ZM988.827 76.019H963.488V50.6797H988.827V76.019ZM963.488 76.019H938.148V50.6797H963.488V76.019ZM963.488 101.358H938.148V76.019H963.488V101.358ZM963.488 126.698H938.148V101.358H963.488V126.698ZM963.488 152.037H938.148V126.698H963.488V152.037ZM963.488 177.376H938.148V152.037H963.488V177.376ZM963.488 202.715H938.148V177.376H963.488V202.715ZM963.488 228.055H938.148V202.715H963.488V228.055ZM988.827 177.376H963.488V152.037H988.827V177.376ZM988.827 152.037H963.488V126.698H988.827V152.037ZM988.827 126.698H963.488V101.358H988.827V126.698ZM988.827 101.358H963.488V76.019H988.827V101.358ZM988.827 202.715H963.488V177.376H988.827V202.715ZM1064.84 228.055H1039.51V202.715H1064.84V228.055ZM1039.51 228.055H1014.17V202.715H1039.51V228.055ZM1014.17 228.055H988.827V202.715H1014.17V228.055ZM1014.17 253.394H988.827V228.055H1014.17V253.394ZM988.827 253.394H963.488V228.055H988.827V253.394ZM988.827 228.055H963.488V202.715H988.827V228.055ZM1039.51 253.394H1014.17V228.055H1039.51V253.394Z" fill="white"/>
<path d="M735.367 0H760.706V25.3393H735.367V0ZM760.706 0H786.046V25.3393H760.706V0ZM760.706 25.3393H786.046V50.6786H760.706V25.3393ZM760.706 50.6786H786.046V76.0179H760.706V50.6786ZM760.706 76.0179H786.046V101.357H760.706V76.0179ZM735.367 50.6786H760.706V76.0179H735.367V50.6786ZM735.367 25.3393H760.706V50.6786H735.367V25.3393ZM735.367 76.0179H760.706V101.357H735.367V76.0179ZM735.367 101.357H760.706V126.696H735.367V101.357ZM735.367 152.036H760.706V177.375H735.367V152.036ZM735.367 126.696H760.706V152.036H735.367V126.696ZM760.706 101.357H786.046V126.696H760.706V101.357ZM760.706 126.696H786.046V152.036H760.706V126.696ZM760.706 152.036H786.046V177.375H760.706V152.036ZM760.706 177.375H786.046V202.714H760.706V177.375ZM735.367 177.375H760.706V202.714H735.367V177.375ZM735.367 228.054H760.706V253.393H735.367V228.054ZM760.706 228.054H786.046V253.393H760.706V228.054ZM760.706 202.714H786.046V228.054H760.706V202.714ZM735.367 202.714H760.706V228.054H735.367V202.714ZM887.403 228.054H912.742V253.393H887.403V228.054ZM887.403 202.714H912.742V228.054H887.403V202.714ZM887.403 177.375H912.742V202.714H887.403V177.375ZM887.403 152.036H912.742V177.375H887.403V152.036ZM887.403 126.696H912.742V152.036H887.403V126.696ZM887.403 101.357H912.742V126.696H887.403V101.357ZM887.403 0H912.742V25.3393H887.403V0ZM862.064 0H887.403V25.3393H862.064V0ZM862.064 25.3393H887.403V50.6786H862.064V25.3393ZM862.064 50.6786H887.403V76.0179H862.064V50.6786ZM862.064 76.0179H887.403V101.357H862.064V76.0179ZM887.403 76.0179H912.742V101.357H887.403V76.0179ZM887.403 50.6786H912.742V76.0179H887.403V50.6786ZM887.403 25.3393H912.742V50.6786H887.403V25.3393ZM862.064 101.357H887.403V126.696H862.064V101.357ZM862.064 202.714H887.403V228.054H862.064V202.714ZM862.064 177.375H887.403V202.714H862.064V177.375ZM862.064 152.036H887.403V177.375H862.064V152.036ZM862.064 126.696H887.403V152.036H862.064V126.696ZM862.064 228.054H887.403V253.393H862.064V228.054ZM836.724 101.357H862.064V126.696H836.724V101.357ZM811.385 101.357H836.724V126.696H811.385V101.357ZM786.046 101.357H811.385V126.696H786.046V101.357ZM786.046 126.696H811.385V152.036H786.046V126.696ZM811.385 126.696H836.724V152.036H811.385V126.696ZM836.724 126.696H862.064V152.036H836.724V126.696Z" fill="white"/>
<path d="M709.896 25.3398V50.6791H684.557V25.3398H709.896ZM684.557 25.3398V50.6791H659.217V25.3398H684.557ZM684.557 50.6791V76.0184H659.217V50.6791H684.557ZM709.896 50.6791V76.0184H684.557V50.6791H709.896ZM659.217 50.6791V76.0184H633.878V50.6791H659.217ZM633.878 50.6791V76.0184H608.539V50.6791H633.878ZM659.217 76.0184V101.358H633.878V76.0184H659.217ZM633.878 76.0184V101.358H608.539V76.0184H633.878ZM608.539 76.0184V101.358H583.2V76.0184H608.539ZM583.2 76.0184V101.358H557.86V76.0184H583.2ZM583.2 101.358V126.697H557.86V101.358H583.2ZM608.539 101.358V126.697H583.2V101.358H608.539ZM557.86 101.358V126.697H532.521V101.358H557.86ZM532.521 101.358V126.697H507.182V101.358H532.521ZM532.521 126.697V152.036H507.182V126.697H532.521ZM557.86 126.697V152.036H532.521V126.697H557.86ZM557.86 152.036V177.376H532.521V152.036H557.86ZM532.521 152.036V177.376H507.182V152.036H532.521ZM583.2 152.036V177.376H557.86V152.036H583.2ZM583.2 126.697V152.036H557.86V126.697H583.2ZM583.2 177.376V202.715H557.86V177.376H583.2ZM608.539 177.376V202.715H583.2V177.376H608.539ZM608.539 152.036V177.376H583.2V152.036H608.539ZM633.878 177.376V202.715H608.539V177.376H633.878ZM633.878 202.715V228.054H608.539V202.715H633.878ZM659.217 202.715V228.054H633.878V202.715H659.217ZM659.217 177.376V202.715H633.878V177.376H659.217ZM684.557 202.715V228.054H659.217V202.715H684.557ZM709.896 202.715V228.054H684.557V202.715H709.896ZM709.896 228.054V253.393H684.557V228.054H709.896ZM659.217 228.054H684.557V253.393H659.217V228.054ZM633.878 228.054H659.217V253.393H633.878V228.054ZM583.2 202.715H608.539V228.054H583.2V202.715ZM532.521 177.376H557.86V202.715H532.521V177.376ZM633.878 25.3398H659.217V50.6791H633.878V25.3398ZM583.2 50.6791H608.539V76.0184H583.2V50.6791ZM532.521 76.0184H557.86V101.358H532.521V76.0184Z" fill="white"/>
<path d="M278.996 25.3398H304.335V50.6791H278.996V25.3398ZM304.335 25.3398H329.675V50.6791H304.335V25.3398ZM304.335 50.6791H329.675V76.0184H304.335V50.6791ZM278.996 50.6791H304.335V76.0184H278.996V50.6791ZM329.675 50.6791H355.014V76.0184H329.675V50.6791ZM355.014 50.6791H380.353V76.0184H355.014V50.6791ZM329.675 76.0184H355.014V101.358H329.675V76.0184ZM355.014 76.0184H380.353V101.358H355.014V76.0184ZM380.353 76.0184H405.693V101.358H380.353V76.0184ZM405.693 76.0184H431.032V101.358H405.693V76.0184ZM405.693 101.358H431.032V126.697H405.693V101.358ZM380.353 101.358H405.693V126.697H380.353V101.358ZM431.032 101.358H456.371V126.697H431.032V101.358ZM456.371 101.358H481.71V126.697H456.371V101.358ZM456.371 126.697H481.71V152.036H456.371V126.697ZM431.032 126.697H456.371V152.036H431.032V126.697ZM431.032 152.036H456.371V177.376H431.032V152.036ZM456.371 152.036H481.71V177.376H456.371V152.036ZM405.693 152.036H431.032V177.376H405.693V152.036ZM405.693 126.697H431.032V152.036H405.693V126.697ZM405.693 177.376H431.032V202.715H405.693V177.376ZM380.353 177.376H405.693V202.715H380.353V177.376ZM380.353 152.036H405.693V177.376H380.353V152.036ZM355.014 177.376H380.353V202.715H355.014V177.376ZM355.014 202.715H380.353V228.054H355.014V202.715ZM329.675 202.715H355.014V228.054H329.675V202.715ZM329.675 177.376H355.014V202.715H329.675V177.376ZM304.335 202.715H329.675V228.054H304.335V202.715ZM278.996 202.715H304.335V228.054H278.996V202.715ZM278.996 228.054H304.335V253.393H278.996V228.054ZM304.335 228.054H329.675V253.393H304.335V228.054ZM329.675 228.054H355.014V253.393H329.675V228.054ZM380.353 202.715H405.693V228.054H380.353V202.715ZM431.032 177.376H456.371V202.715H431.032V177.376ZM329.675 25.3398H355.014V50.6791H329.675V25.3398ZM380.353 50.6791H405.693V76.0184H380.353V50.6791ZM431.032 76.0184H456.371V101.358H431.032V76.0184Z" fill="white"/>
<path d="M202.781 228.054H228.121V253.393H202.781V228.054ZM228.121 228.054H253.46V253.393H228.121V228.054ZM228.121 202.714H253.46V228.054H228.121V202.714ZM228.121 177.375H253.46V202.714H228.121V177.375ZM228.121 152.036H253.46V177.375H228.121V152.036ZM228.121 126.696H253.46V152.036H228.121V126.696ZM228.121 101.357H253.46V126.696H228.121V101.357ZM202.781 101.357H228.121V126.696H202.781V101.357ZM202.781 126.696H228.121V152.036H202.781V126.696ZM202.781 152.036H228.121V177.375H202.781V152.036ZM202.781 177.375H228.121V202.714H202.781V177.375ZM202.781 202.714H228.121V228.054H202.781V202.714ZM202.781 76.0179H228.121V101.357H202.781V76.0179ZM228.121 76.0179H253.46V101.357H228.121V76.0179ZM228.121 50.6786H253.46V76.0179H228.121V50.6786ZM228.121 25.3393H253.46V50.6786H228.121V25.3393ZM228.121 0H253.46V25.3393H228.121V0ZM202.781 0H228.121V25.3393H202.781V0ZM202.781 25.3393H228.121V50.6786H202.781V25.3393ZM202.781 50.6786H228.121V76.0179H202.781V50.6786Z" fill="white"/>
<path d="M50.6786 25.3393H76.0179V50.6786H50.6786V25.3393ZM76.0179 25.3393H101.357V50.6786H76.0179V25.3393ZM76.0179 0H101.357V25.3393H76.0179V0ZM101.357 25.3393H126.696V50.6786H101.357V25.3393ZM101.357 50.6786H126.696V76.0179H101.357V50.6786ZM126.696 50.6786H152.036V76.0179H126.696V50.6786ZM76.0179 50.6786H101.357V76.0179H76.0179V50.6786ZM50.6786 50.6786H76.0179V76.0179H50.6786V50.6786ZM25.3393 50.6786H50.6786V76.0179H25.3393V50.6786ZM25.3393 76.0179H50.6786V101.357H25.3393V76.0179ZM0 76.0179H25.3393V101.357H0V76.0179ZM50.6786 76.0179H76.0179V101.357H50.6786V76.0179ZM25.3393 101.357H50.6786V126.696H25.3393V101.357ZM25.3393 126.696H50.6786V152.036H25.3393V126.696ZM25.3393 152.036H50.6786V177.375H25.3393V152.036ZM50.6786 152.036H76.0179V177.375H50.6786V152.036ZM76.0179 152.036H101.357V177.375H76.0179V152.036ZM101.357 152.036H126.696V177.375H101.357V152.036ZM126.696 152.036H152.036V177.375H126.696V152.036ZM152.036 152.036H177.375V177.375H152.036V152.036ZM152.036 126.696H177.375V152.036H152.036V126.696ZM152.036 101.357H177.375V126.696H152.036V101.357ZM152.036 76.0179H177.375V101.357H152.036V76.0179ZM126.696 76.0179H152.036V101.357H126.696V76.0179ZM101.357 76.0179H126.696V101.357H101.357V76.0179ZM126.696 101.357H152.036V126.696H126.696V101.357ZM126.696 126.696H152.036V152.036H126.696V126.696ZM126.696 177.375H152.036V202.714H126.696V177.375ZM152.036 177.375H177.375V202.714H152.036V177.375ZM152.036 202.714H177.375V228.054H152.036V202.714ZM152.036 228.054H177.375V253.393H152.036V228.054ZM126.696 228.054H152.036V253.393H126.696V228.054ZM126.696 202.714H152.036V228.054H126.696V202.714ZM101.357 177.375H126.696V202.714H101.357V177.375ZM76.0179 177.375H101.357V202.714H76.0179V177.375ZM50.6786 177.375H76.0179V202.714H50.6786V177.375ZM25.3393 177.375H50.6786V202.714H25.3393V177.375ZM25.3393 202.714H50.6786V228.054H25.3393V202.714ZM25.3393 228.054H50.6786V253.393H25.3393V228.054ZM0 228.054H25.3393V253.393H0V228.054ZM0 202.714H25.3393V228.054H0V202.714ZM0 177.375H25.3393V202.714H0V177.375ZM0 152.036H25.3393V177.375H0V152.036ZM0 126.696H25.3393V152.036H0V126.696ZM0 101.357H25.3393V126.696H0V101.357Z" fill="white"/>
</svg>
