<svg width="1114" height="1114" viewBox="0 0 1114 1114" fill="none" xmlns="http://www.w3.org/2000/svg">
<path d="M1051.54 247.391C1040.84 242.148 1036.23 252.139 1029.97 257.215C1027.83 258.852 1026.02 260.98 1024.21 262.945C1008.57 279.645 990.3 290.62 966.43 289.308C931.531 287.341 901.735 298.316 875.396 325.008C869.799 292.093 851.198 272.44 822.884 259.833C808.07 253.282 793.09 246.731 782.717 232.484C775.474 222.334 773.499 211.035 769.877 199.898C767.571 193.186 765.267 186.305 757.53 185.159C749.134 183.85 745.842 190.889 742.549 196.787C729.38 220.861 724.278 247.389 724.77 274.244C725.922 334.672 751.439 382.813 802.139 417.039C807.901 420.97 809.382 424.897 807.572 430.632C804.114 442.422 799.998 453.884 796.379 465.674C794.073 473.209 790.615 474.846 782.55 471.568C754.73 459.944 730.694 442.748 709.459 421.953C673.408 387.072 640.814 348.59 600.155 318.458C590.608 311.416 581.059 304.869 571.181 298.643C529.697 258.361 576.614 225.28 587.479 221.353C598.836 217.259 591.429 203.173 554.719 203.34C518.009 203.502 484.428 215.785 441.629 232.16C435.374 234.617 428.787 236.416 422.038 237.89C383.189 230.523 342.857 228.882 300.716 233.634C221.37 242.475 157.995 279.976 111.408 344.005C55.4401 420.97 42.2712 508.413 58.4039 599.626C75.3597 695.748 124.414 775.333 199.809 837.563C278.003 902.08 368.048 933.686 470.768 927.627C533.159 924.025 602.627 915.675 680.984 849.354C700.736 859.18 721.479 863.107 755.885 866.054C782.388 868.511 807.905 864.746 827.657 860.654C858.605 854.102 856.466 825.444 845.273 820.205C754.57 777.957 774.486 795.15 756.379 781.23C802.472 726.702 871.941 670.039 899.102 486.469C901.241 471.897 899.431 462.725 899.102 450.935C898.937 443.731 900.583 440.949 908.815 440.127C931.531 437.507 953.59 431.286 973.838 420.15C1032.61 388.056 1056.31 335.326 1061.91 272.116C1062.73 262.454 1061.74 252.463 1051.54 247.391ZM539.413 816.273C451.508 747.171 408.874 724.406 391.259 725.39C374.797 726.373 377.761 745.205 381.381 757.488C385.168 769.603 390.107 777.957 397.019 788.599C401.793 795.641 405.088 806.119 392.248 813.983C363.933 831.505 314.711 808.086 312.405 806.941C255.122 773.205 207.218 728.662 173.47 667.75C140.875 609.121 121.946 546.242 118.817 479.102C117.994 462.892 122.767 457.157 138.9 454.213C160.135 450.282 182.03 449.461 203.265 452.572C292.984 465.674 369.364 505.794 433.399 569.331C469.944 605.52 497.599 648.754 526.079 691.002C556.367 735.868 588.962 778.612 630.445 813.654C645.095 825.935 656.783 835.268 667.977 842.148C634.232 845.914 577.933 846.735 539.413 816.273ZM581.555 545.259C581.555 538.054 587.317 532.324 594.562 532.324C596.208 532.324 597.689 532.648 599.007 533.138C600.818 533.796 602.465 534.779 603.78 536.249C606.086 538.545 607.402 541.817 607.402 545.257C607.402 552.463 601.642 558.193 594.4 558.193C587.159 558.193 581.555 552.465 581.555 545.259ZM712.426 612.4C704.031 615.84 695.636 618.784 687.569 619.113C675.058 619.767 661.395 614.689 653.988 608.467C642.466 598.805 634.234 593.404 630.778 576.536C629.295 569.331 630.118 558.195 631.437 551.811C634.399 538.054 631.107 529.213 621.396 521.186C613.493 514.635 603.452 512.836 592.421 512.836C588.306 512.836 584.522 511.033 581.722 509.559C577.112 507.268 573.329 501.536 576.948 494.494C578.1 492.204 583.699 486.635 585.016 485.653C599.997 477.136 617.282 479.922 633.249 486.307C648.066 492.366 659.26 503.502 675.391 519.222C691.852 538.216 694.814 543.46 704.198 557.704C711.608 568.84 718.357 580.301 722.966 593.404C725.764 601.592 722.139 608.305 712.426 612.4Z" fill="#4D6BFE"/>
</svg>
