<svg width="866" height="377" viewBox="0 0 866 377" fill="none" xmlns="http://www.w3.org/2000/svg">
<path d="M790.603 338.536H828.218V376.151H790.603V338.536ZM828.218 338.536H865.833V376.151H828.218V338.536ZM828.218 300.921H865.833V338.536H828.218V300.921ZM828.218 263.306H865.833V300.921H828.218V263.306ZM828.218 225.691H865.833V263.306H828.218V225.691ZM828.218 188.076H865.833V225.691H828.218V188.076ZM828.218 150.461H865.833V188.076H828.218V150.461ZM790.603 150.461H828.218V188.076H790.603V150.461ZM790.603 188.076H828.218V225.691H790.603V188.076ZM790.603 225.691H828.218V263.306H790.603V225.691ZM790.603 263.306H828.218V300.921H790.603V263.306ZM790.603 300.921H828.218V338.536H790.603V300.921ZM790.603 112.845H828.218V150.461H790.603V112.845ZM828.218 112.845H865.833V150.461H828.218V112.845ZM828.218 75.2302H865.833V112.845H828.218V75.2302ZM828.218 37.6151L865.833 37.6151V75.2302H828.218V37.6151ZM828.218 0L865.833 0V37.6151L828.218 37.6151V0ZM790.603 0L828.218 0V37.6151H790.603V0ZM790.603 37.6151H828.218V75.2302H790.603V37.6151ZM790.603 75.2302H828.218V112.845H790.603V75.2302Z" fill="white"/>
<path d="M752.792 37.625V75.2401H715.177V37.625H752.792ZM715.177 37.625V75.2401H677.562V37.625H715.177ZM715.177 75.2401V112.855H677.562V75.2401H715.177ZM752.792 75.2401V112.855H715.177V75.2401H752.792ZM677.562 75.2401V112.855H639.947V75.2401L677.562 75.2401ZM639.947 75.2401V112.855H602.332V75.2401H639.947ZM677.562 112.855V150.47H639.947V112.855H677.562ZM639.947 112.855V150.47H602.332V112.855H639.947ZM602.332 112.855V150.47H564.716V112.855L602.332 112.855ZM564.716 112.855V150.47H527.101V112.855H564.716ZM564.716 150.47V188.086H527.101V150.47H564.716ZM602.332 150.47V188.086H564.716V150.47H602.332ZM527.101 150.47V188.086H489.486V150.47H527.101ZM489.486 150.47V188.086H451.871V150.47H489.486ZM489.486 188.086V225.701H451.871V188.086H489.486ZM527.101 188.086V225.701H489.486V188.086H527.101ZM527.101 225.701V263.316H489.486V225.701H527.101ZM489.486 225.701V263.316H451.871V225.701H489.486ZM564.716 225.701V263.316H527.101V225.701H564.716ZM564.716 188.086V225.701H527.101V188.086H564.716ZM564.716 263.316V300.931H527.101V263.316H564.716ZM602.332 263.316V300.931H564.716V263.316H602.332ZM602.332 225.701V263.316H564.716V225.701H602.332ZM639.947 263.316V300.931H602.332V263.316H639.947ZM639.947 300.931V338.546H602.332V300.931H639.947ZM677.562 300.931V338.546H639.947V300.931H677.562ZM677.562 263.316V300.931H639.947V263.316H677.562ZM715.177 300.931V338.546H677.562V300.931H715.177ZM752.792 300.931V338.546H715.177V300.931H752.792ZM752.792 338.546V376.161H715.177V338.546H752.792ZM677.562 338.546H715.177V376.161H677.562V338.546ZM639.947 338.546H677.562V376.161H639.947V338.546ZM564.716 300.931H602.332V338.546H564.716V300.931ZM489.486 263.316H527.101V300.931H489.486V263.316ZM639.947 37.625L677.562 37.625V75.2401L639.947 75.2401V37.625ZM564.716 75.2401H602.332V112.855L564.716 112.855V75.2401ZM489.486 112.855H527.101V150.47H489.486V112.855Z" fill="white"/>
<path d="M113.139 37.625H150.754V75.2401H113.139V37.625ZM150.754 37.625L188.369 37.625V75.2401H150.754V37.625ZM150.754 75.2401H188.369V112.855H150.754V75.2401ZM113.139 75.2401H150.754V112.855H113.139V75.2401ZM188.369 75.2401H225.984V112.855H188.369V75.2401ZM225.984 75.2401H263.599V112.855L225.984 112.855V75.2401ZM188.369 112.855H225.984V150.47H188.369V112.855ZM225.984 112.855L263.599 112.855V150.47H225.984V112.855ZM263.599 112.855H301.214V150.47H263.599V112.855ZM301.214 112.855H338.829V150.47H301.214V112.855ZM301.214 150.47H338.829V188.086H301.214V150.47ZM263.599 150.47H301.214V188.086H263.599V150.47ZM338.829 150.47H376.445V188.086L338.829 188.086V150.47ZM376.445 150.47H414.06V188.086H376.445V150.47ZM376.445 188.086H414.06V225.701H376.445V188.086ZM338.829 188.086L376.445 188.086V225.701L338.829 225.701V188.086ZM338.829 225.701L376.445 225.701V263.316H338.829V225.701ZM376.445 225.701H414.06V263.316H376.445V225.701ZM301.214 225.701H338.829V263.316H301.214V225.701ZM301.214 188.086H338.829V225.701H301.214V188.086ZM301.214 263.316H338.829V300.931H301.214V263.316ZM263.599 263.316H301.214V300.931H263.599V263.316ZM263.599 225.701H301.214V263.316H263.599V225.701ZM225.984 263.316H263.599V300.931H225.984V263.316ZM225.984 300.931H263.599V338.546H225.984V300.931ZM188.369 300.931H225.984V338.546H188.369V300.931ZM188.369 263.316H225.984V300.931H188.369V263.316ZM150.754 300.931H188.369V338.546H150.754V300.931ZM113.139 300.931H150.754V338.546H113.139V300.931ZM113.139 338.546H150.754L150.754 376.161H113.139V338.546ZM150.754 338.546H188.369V376.161H150.754L150.754 338.546ZM188.369 338.546H225.984V376.161H188.369V338.546ZM263.599 300.931H301.214V338.546H263.599V300.931ZM338.829 263.316H376.445V300.931H338.829V263.316ZM188.369 37.625H225.984V75.2401H188.369V37.625ZM263.599 75.2401H301.214V112.855H263.599V75.2401ZM338.829 112.855H376.445V150.47H338.829V112.855Z" fill="white"/>
<path d="M0 338.536H37.6151V376.151H0L0 338.536ZM37.6151 338.536H75.2303V376.151H37.6151V338.536ZM37.6151 300.921H75.2303V338.536H37.6151L37.6151 300.921ZM37.6151 263.306H75.2303V300.921H37.6151V263.306ZM37.6151 225.691H75.2303V263.306H37.6151V225.691ZM37.6151 188.076H75.2303V225.691H37.6151L37.6151 188.076ZM37.6151 150.461H75.2303V188.076H37.6151V150.461ZM0 150.461H37.6151V188.076H0L0 150.461ZM0 188.076H37.6151L37.6151 225.691H0L0 188.076ZM0 225.691H37.6151V263.306H0L0 225.691ZM0 263.306H37.6151V300.921H0L0 263.306ZM0 300.921H37.6151L37.6151 338.536H0L0 300.921ZM0 112.845H37.6151V150.461H0L0 112.845ZM37.6151 112.845H75.2303L75.2303 150.461H37.6151V112.845ZM37.6151 75.2302H75.2303V112.845H37.6151V75.2302ZM37.6151 37.6151L75.2303 37.6151V75.2302H37.6151L37.6151 37.6151ZM37.6151 0L75.2303 0V37.6151L37.6151 37.6151V0ZM0 0L37.6151 0V37.6151H0L0 0ZM0 37.6151H37.6151L37.6151 75.2302H0L0 37.6151ZM0 75.2302H37.6151V112.845H0L0 75.2302Z" fill="white"/>
</svg>
